<?xml version="1.0" encoding="utf-8" standalone="no"?>
<!DOCTYPE svg PUBLIC "-//W3C//DTD SVG 1.1//EN"
  "http://www.w3.org/Graphics/SVG/1.1/DTD/svg11.dtd">
<!-- Created with matplotlib (https://matplotlib.org/) -->
<svg height="288pt" version="1.1" viewBox="0 0 432 288" width="432pt" xmlns="http://www.w3.org/2000/svg" xmlns:xlink="http://www.w3.org/1999/xlink">
 <metadata>
  <rdf:RDF xmlns:cc="http://creativecommons.org/ns#" xmlns:dc="http://purl.org/dc/elements/1.1/" xmlns:rdf="http://www.w3.org/1999/02/22-rdf-syntax-ns#">
   <cc:Work>
    <dc:type rdf:resource="http://purl.org/dc/dcmitype/StillImage"/>
    <dc:date>2022-07-21T11:33:15.330774</dc:date>
    <dc:format>image/svg+xml</dc:format>
    <dc:creator>
     <cc:Agent>
      <dc:title>Matplotlib v3.3.4, https://matplotlib.org/</dc:title>
     </cc:Agent>
    </dc:creator>
   </cc:Work>
  </rdf:RDF>
 </metadata>
 <defs>
  <style type="text/css">*{stroke-linecap:butt;stroke-linejoin:round;}</style>
 </defs>
 <g id="figure_1">
  <g id="patch_1">
   <path d="M 0 288 
L 432 288 
L 432 0 
L 0 0 
z
" style="fill:#ffffff;"/>
  </g>
  <g id="axes_1">
   <g id="patch_2">
    <path d="M 54 252 
L 388.8 252 
L 388.8 34.56 
L 54 34.56 
z
" style="fill:#ffffff;"/>
   </g>
   <g id="PolyCollection_1">
    <path clip-path="url(#pdcc87a3c5e)" d="M 54 170.156867 
L 54 239.765345 
L 60.696 237.555467 
L 67.392 236.81468 
L 74.088 236.878267 
L 80.784 237.020172 
L 87.48 236.532223 
L 94.176 236.531005 
L 100.872 237.157565 
L 107.568 236.280434 
L 114.264 237.257887 
L 120.96 238.5087 
L 127.656 238.774946 
L 134.352 238.638371 
L 141.048 240.341272 
L 147.744 241.82124 
L 154.44 242.424774 
L 161.136 245.199323 
L 167.832 244.890593 
L 174.528 244.361344 
L 181.224 244.989792 
L 187.92 245.860053 
L 194.616 247.203582 
L 201.312 247.657758 
L 208.008 247.866249 
L 214.704 249.477157 
L 221.4 249.948196 
L 228.096 250.520694 
L 234.792 250.431299 
L 241.488 250.934891 
L 248.184 251.414782 
L 254.88 251.389272 
L 261.576 251.156322 
L 268.272 251.430128 
L 274.968 251.711262 
L 281.664 251.690548 
L 288.36 251.774295 
L 295.056 251.829717 
L 301.752 251.869474 
L 308.448 251.916287 
L 315.144 251.932534 
L 321.84 251.948559 
L 328.536 251.942996 
L 335.232 251.960391 
L 341.928 251.956033 
L 348.624 251.941948 
L 355.32 251.943873 
L 362.016 251.97419 
L 368.712 251.949506 
L 375.408 251.920172 
L 382.104 251.959405 
L 382.104 155.969573 
L 382.104 155.969573 
L 375.408 173.698335 
L 368.712 145.250179 
L 362.016 157.532252 
L 355.32 164.786936 
L 348.624 167.889093 
L 341.928 166.608146 
L 335.232 166.104231 
L 328.536 164.713336 
L 321.84 157.760569 
L 315.144 153.851057 
L 308.448 147.342173 
L 301.752 152.847299 
L 295.056 148.787153 
L 288.36 156.599386 
L 281.664 141.271201 
L 274.968 144.012565 
L 268.272 152.972056 
L 261.576 143.493616 
L 254.88 138.678971 
L 248.184 130.805279 
L 241.488 122.212793 
L 234.792 129.218128 
L 228.096 121.85434 
L 221.4 117.343658 
L 214.704 116.702134 
L 208.008 110.646425 
L 201.312 117.861945 
L 194.616 115.893072 
L 187.92 129.50124 
L 181.224 123.110037 
L 174.528 114.590393 
L 167.832 122.384329 
L 161.136 121.027311 
L 154.44 134.924339 
L 147.744 137.061813 
L 141.048 147.270285 
L 134.352 150.921353 
L 127.656 164.540583 
L 120.96 165.031428 
L 114.264 169.19472 
L 107.568 174.201248 
L 100.872 174.141824 
L 94.176 179.209862 
L 87.48 175.33994 
L 80.784 174.8545 
L 74.088 172.740589 
L 67.392 170.287765 
L 60.696 169.649806 
L 54 170.156867 
z
" style="fill:#ff0000;fill-opacity:0.1;"/>
   </g>
   <g id="PolyCollection_2">
    <path clip-path="url(#pdcc87a3c5e)" d="M 54 142.326114 
L 54 227.038318 
L 60.696 227.514457 
L 67.392 229.897138 
L 74.088 229.229876 
L 80.784 232.365621 
L 87.48 234.553504 
L 94.176 232.864472 
L 100.872 232.24704 
L 107.568 236.111531 
L 114.264 239.220244 
L 120.96 236.75442 
L 127.656 237.613088 
L 134.352 237.127259 
L 141.048 236.149576 
L 147.744 234.967495 
L 154.44 227.423276 
L 161.136 225.188699 
L 167.832 220.12191 
L 174.528 215.803153 
L 181.224 214.023043 
L 187.92 206.977239 
L 194.616 211.03653 
L 201.312 202.047953 
L 208.008 195.273655 
L 214.704 197.527696 
L 221.4 197.176292 
L 228.096 198.163756 
L 234.792 196.761489 
L 241.488 194.021149 
L 248.184 196.99125 
L 254.88 188.893205 
L 261.576 192.332289 
L 268.272 201.589841 
L 274.968 198.445881 
L 281.664 195.626948 
L 288.36 195.855485 
L 295.056 192.150836 
L 301.752 193.042728 
L 308.448 197.266257 
L 315.144 190.903055 
L 321.84 197.288969 
L 328.536 192.722384 
L 335.232 192.693501 
L 341.928 190.386882 
L 348.624 190.968794 
L 355.32 205.113903 
L 362.016 199.266046 
L 368.712 200.752338 
L 375.408 200.496942 
L 382.104 204.941949 
L 382.104 48.598107 
L 382.104 48.598107 
L 375.408 48.321283 
L 368.712 55.177004 
L 362.016 44.913057 
L 355.32 50.439382 
L 348.624 47.026614 
L 341.928 53.339835 
L 335.232 51.575701 
L 328.536 54.557836 
L 321.84 52.050706 
L 315.144 53.004838 
L 308.448 52.176703 
L 301.752 45.569403 
L 295.056 53.615505 
L 288.36 56.37614 
L 281.664 56.411008 
L 274.968 51.484495 
L 268.272 53.978232 
L 261.576 51.039897 
L 254.88 52.353532 
L 248.184 53.177125 
L 241.488 50.777224 
L 234.792 52.13038 
L 228.096 50.452537 
L 221.4 49.774923 
L 214.704 57.503719 
L 208.008 58.177369 
L 201.312 54.030052 
L 194.616 53.100243 
L 187.92 52.955169 
L 181.224 54.346161 
L 174.528 54.040968 
L 167.832 50.596113 
L 161.136 54.548298 
L 154.44 59.578292 
L 147.744 67.180791 
L 141.048 80.835584 
L 134.352 90.814736 
L 127.656 106.522898 
L 120.96 134.513284 
L 114.264 152.38263 
L 107.568 153.966415 
L 100.872 153.393509 
L 94.176 155.331752 
L 87.48 162.751777 
L 80.784 157.472435 
L 74.088 146.512717 
L 67.392 144.017102 
L 60.696 145.127289 
L 54 142.326114 
z
" style="fill:#0000ff;fill-opacity:0.1;"/>
   </g>
   <g id="PolyCollection_3">
    <path clip-path="url(#pdcc87a3c5e)" d="M 54 117.159024 
L 54 206.308173 
L 60.696 208.677443 
L 67.392 207.425305 
L 74.088 215.440361 
L 80.784 214.593868 
L 87.48 219.138386 
L 94.176 220.985546 
L 100.872 220.417115 
L 107.568 226.288951 
L 114.264 229.857583 
L 120.96 234.953288 
L 127.656 238.286899 
L 134.352 241.541606 
L 141.048 241.005178 
L 147.744 242.168042 
L 154.44 238.391998 
L 161.136 240.129172 
L 167.832 238.045965 
L 174.528 236.55006 
L 181.224 235.634105 
L 187.92 232.190289 
L 194.616 223.629353 
L 201.312 220.138466 
L 208.008 214.395179 
L 214.704 203.659039 
L 221.4 194.158497 
L 228.096 193.65275 
L 234.792 190.613441 
L 241.488 184.289852 
L 248.184 180.779701 
L 254.88 178.933192 
L 261.576 177.874946 
L 268.272 170.861063 
L 274.968 167.146921 
L 281.664 166.116445 
L 288.36 162.954341 
L 295.056 163.14041 
L 301.752 156.086486 
L 308.448 159.36693 
L 315.144 155.575619 
L 321.84 156.266906 
L 328.536 151.679668 
L 335.232 152.224355 
L 341.928 149.526889 
L 348.624 148.499133 
L 355.32 147.658329 
L 362.016 148.641918 
L 368.712 145.474945 
L 375.408 145.611731 
L 382.104 143.733675 
L 382.104 69.585015 
L 382.104 69.585015 
L 375.408 67.66403 
L 368.712 69.519062 
L 362.016 67.225005 
L 355.32 67.944718 
L 348.624 63.161003 
L 341.928 67.447636 
L 335.232 64.937903 
L 328.536 66.480025 
L 321.84 62.456636 
L 315.144 63.958876 
L 308.448 65.632207 
L 301.752 63.782392 
L 295.056 60.396615 
L 288.36 62.877909 
L 281.664 57.391206 
L 274.968 60.035675 
L 268.272 58.452498 
L 261.576 57.819506 
L 254.88 55.486227 
L 248.184 54.540297 
L 241.488 57.234265 
L 234.792 52.896944 
L 228.096 55.899214 
L 221.4 57.107565 
L 214.704 52.076427 
L 208.008 52.923132 
L 201.312 55.164124 
L 194.616 56.776794 
L 187.92 66.81328 
L 181.224 74.665158 
L 174.528 91.674102 
L 167.832 98.843167 
L 161.136 122.728902 
L 154.44 135.5813 
L 147.744 143.384678 
L 141.048 151.789061 
L 134.352 158.93493 
L 127.656 155.376063 
L 120.96 161.955022 
L 114.264 147.025086 
L 107.568 143.023325 
L 100.872 138.923484 
L 94.176 134.856365 
L 87.48 144.824584 
L 80.784 127.568865 
L 74.088 124.421049 
L 67.392 104.84762 
L 60.696 106.955929 
L 54 117.159024 
z
" style="fill:#008000;fill-opacity:0.1;"/>
   </g>
   <g id="matplotlib.axis_1">
    <g id="xtick_1">
     <g id="line2d_1">
      <defs>
       <path d="M 0 0 
L 0 3.5 
" id="md06b62e7b7" style="stroke:#000000;stroke-width:0.8;"/>
      </defs>
      <g>
       <use style="stroke:#000000;stroke-width:0.8;" x="54" xlink:href="#md06b62e7b7" y="252"/>
      </g>
     </g>
     <g id="text_1">
      <!-- 0 -->
      <g transform="translate(50.1825 268.118125)scale(0.12 -0.12)">
       <defs>
        <path d="M 31.78125 66.40625 
Q 24.171875 66.40625 20.328125 58.90625 
Q 16.5 51.421875 16.5 36.375 
Q 16.5 21.390625 20.328125 13.890625 
Q 24.171875 6.390625 31.78125 6.390625 
Q 39.453125 6.390625 43.28125 13.890625 
Q 47.125 21.390625 47.125 36.375 
Q 47.125 51.421875 43.28125 58.90625 
Q 39.453125 66.40625 31.78125 66.40625 
z
M 31.78125 74.21875 
Q 44.046875 74.21875 50.515625 64.515625 
Q 56.984375 54.828125 56.984375 36.375 
Q 56.984375 17.96875 50.515625 8.265625 
Q 44.046875 -1.421875 31.78125 -1.421875 
Q 19.53125 -1.421875 13.0625 8.265625 
Q 6.59375 17.96875 6.59375 36.375 
Q 6.59375 54.828125 13.0625 64.515625 
Q 19.53125 74.21875 31.78125 74.21875 
z
" id="DejaVuSans-48"/>
       </defs>
       <use xlink:href="#DejaVuSans-48"/>
      </g>
     </g>
    </g>
    <g id="xtick_2">
     <g id="line2d_2">
      <g>
       <use style="stroke:#000000;stroke-width:0.8;" x="120.96" xlink:href="#md06b62e7b7" y="252"/>
      </g>
     </g>
     <g id="text_2">
      <!-- 10 -->
      <g transform="translate(113.325 268.118125)scale(0.12 -0.12)">
       <defs>
        <path d="M 12.40625 8.296875 
L 28.515625 8.296875 
L 28.515625 63.921875 
L 10.984375 60.40625 
L 10.984375 69.390625 
L 28.421875 72.90625 
L 38.28125 72.90625 
L 38.28125 8.296875 
L 54.390625 8.296875 
L 54.390625 0 
L 12.40625 0 
z
" id="DejaVuSans-49"/>
       </defs>
       <use xlink:href="#DejaVuSans-49"/>
       <use x="63.623047" xlink:href="#DejaVuSans-48"/>
      </g>
     </g>
    </g>
    <g id="xtick_3">
     <g id="line2d_3">
      <g>
       <use style="stroke:#000000;stroke-width:0.8;" x="187.92" xlink:href="#md06b62e7b7" y="252"/>
      </g>
     </g>
     <g id="text_3">
      <!-- 20 -->
      <g transform="translate(180.285 268.118125)scale(0.12 -0.12)">
       <defs>
        <path d="M 19.1875 8.296875 
L 53.609375 8.296875 
L 53.609375 0 
L 7.328125 0 
L 7.328125 8.296875 
Q 12.9375 14.109375 22.625 23.890625 
Q 32.328125 33.6875 34.8125 36.53125 
Q 39.546875 41.84375 41.421875 45.53125 
Q 43.3125 49.21875 43.3125 52.78125 
Q 43.3125 58.59375 39.234375 62.25 
Q 35.15625 65.921875 28.609375 65.921875 
Q 23.96875 65.921875 18.8125 64.3125 
Q 13.671875 62.703125 7.8125 59.421875 
L 7.8125 69.390625 
Q 13.765625 71.78125 18.9375 73 
Q 24.125 74.21875 28.421875 74.21875 
Q 39.75 74.21875 46.484375 68.546875 
Q 53.21875 62.890625 53.21875 53.421875 
Q 53.21875 48.921875 51.53125 44.890625 
Q 49.859375 40.875 45.40625 35.40625 
Q 44.1875 33.984375 37.640625 27.21875 
Q 31.109375 20.453125 19.1875 8.296875 
z
" id="DejaVuSans-50"/>
       </defs>
       <use xlink:href="#DejaVuSans-50"/>
       <use x="63.623047" xlink:href="#DejaVuSans-48"/>
      </g>
     </g>
    </g>
    <g id="xtick_4">
     <g id="line2d_4">
      <g>
       <use style="stroke:#000000;stroke-width:0.8;" x="254.88" xlink:href="#md06b62e7b7" y="252"/>
      </g>
     </g>
     <g id="text_4">
      <!-- 30 -->
      <g transform="translate(247.245 268.118125)scale(0.12 -0.12)">
       <defs>
        <path d="M 40.578125 39.3125 
Q 47.65625 37.796875 51.625 33 
Q 55.609375 28.21875 55.609375 21.1875 
Q 55.609375 10.40625 48.1875 4.484375 
Q 40.765625 -1.421875 27.09375 -1.421875 
Q 22.515625 -1.421875 17.65625 -0.515625 
Q 12.796875 0.390625 7.625 2.203125 
L 7.625 11.71875 
Q 11.71875 9.328125 16.59375 8.109375 
Q 21.484375 6.890625 26.8125 6.890625 
Q 36.078125 6.890625 40.9375 10.546875 
Q 45.796875 14.203125 45.796875 21.1875 
Q 45.796875 27.640625 41.28125 31.265625 
Q 36.765625 34.90625 28.71875 34.90625 
L 20.21875 34.90625 
L 20.21875 43.015625 
L 29.109375 43.015625 
Q 36.375 43.015625 40.234375 45.921875 
Q 44.09375 48.828125 44.09375 54.296875 
Q 44.09375 59.90625 40.109375 62.90625 
Q 36.140625 65.921875 28.71875 65.921875 
Q 24.65625 65.921875 20.015625 65.03125 
Q 15.375 64.15625 9.8125 62.3125 
L 9.8125 71.09375 
Q 15.4375 72.65625 20.34375 73.4375 
Q 25.25 74.21875 29.59375 74.21875 
Q 40.828125 74.21875 47.359375 69.109375 
Q 53.90625 64.015625 53.90625 55.328125 
Q 53.90625 49.265625 50.4375 45.09375 
Q 46.96875 40.921875 40.578125 39.3125 
z
" id="DejaVuSans-51"/>
       </defs>
       <use xlink:href="#DejaVuSans-51"/>
       <use x="63.623047" xlink:href="#DejaVuSans-48"/>
      </g>
     </g>
    </g>
    <g id="xtick_5">
     <g id="line2d_5">
      <g>
       <use style="stroke:#000000;stroke-width:0.8;" x="321.84" xlink:href="#md06b62e7b7" y="252"/>
      </g>
     </g>
     <g id="text_5">
      <!-- 40 -->
      <g transform="translate(314.205 268.118125)scale(0.12 -0.12)">
       <defs>
        <path d="M 37.796875 64.3125 
L 12.890625 25.390625 
L 37.796875 25.390625 
z
M 35.203125 72.90625 
L 47.609375 72.90625 
L 47.609375 25.390625 
L 58.015625 25.390625 
L 58.015625 17.1875 
L 47.609375 17.1875 
L 47.609375 0 
L 37.796875 0 
L 37.796875 17.1875 
L 4.890625 17.1875 
L 4.890625 26.703125 
z
" id="DejaVuSans-52"/>
       </defs>
       <use xlink:href="#DejaVuSans-52"/>
       <use x="63.623047" xlink:href="#DejaVuSans-48"/>
      </g>
     </g>
    </g>
    <g id="xtick_6">
     <g id="line2d_6">
      <g>
       <use style="stroke:#000000;stroke-width:0.8;" x="388.8" xlink:href="#md06b62e7b7" y="252"/>
      </g>
     </g>
     <g id="text_6">
      <!-- 50 -->
      <g transform="translate(381.165 268.118125)scale(0.12 -0.12)">
       <defs>
        <path d="M 10.796875 72.90625 
L 49.515625 72.90625 
L 49.515625 64.59375 
L 19.828125 64.59375 
L 19.828125 46.734375 
Q 21.96875 47.46875 24.109375 47.828125 
Q 26.265625 48.1875 28.421875 48.1875 
Q 40.625 48.1875 47.75 41.5 
Q 54.890625 34.8125 54.890625 23.390625 
Q 54.890625 11.625 47.5625 5.09375 
Q 40.234375 -1.421875 26.90625 -1.421875 
Q 22.3125 -1.421875 17.546875 -0.640625 
Q 12.796875 0.140625 7.71875 1.703125 
L 7.71875 11.625 
Q 12.109375 9.234375 16.796875 8.0625 
Q 21.484375 6.890625 26.703125 6.890625 
Q 35.15625 6.890625 40.078125 11.328125 
Q 45.015625 15.765625 45.015625 23.390625 
Q 45.015625 31 40.078125 35.4375 
Q 35.15625 39.890625 26.703125 39.890625 
Q 22.75 39.890625 18.8125 39.015625 
Q 14.890625 38.140625 10.796875 36.28125 
z
" id="DejaVuSans-53"/>
       </defs>
       <use xlink:href="#DejaVuSans-53"/>
       <use x="63.623047" xlink:href="#DejaVuSans-48"/>
      </g>
     </g>
    </g>
    <g id="text_7">
     <!-- update -->
     <g transform="translate(200.258438 283.731875)scale(0.12 -0.12)">
      <defs>
       <path d="M 8.5 21.578125 
L 8.5 54.6875 
L 17.484375 54.6875 
L 17.484375 21.921875 
Q 17.484375 14.15625 20.5 10.265625 
Q 23.53125 6.390625 29.59375 6.390625 
Q 36.859375 6.390625 41.078125 11.03125 
Q 45.3125 15.671875 45.3125 23.6875 
L 45.3125 54.6875 
L 54.296875 54.6875 
L 54.296875 0 
L 45.3125 0 
L 45.3125 8.40625 
Q 42.046875 3.421875 37.71875 1 
Q 33.40625 -1.421875 27.6875 -1.421875 
Q 18.265625 -1.421875 13.375 4.4375 
Q 8.5 10.296875 8.5 21.578125 
z
M 31.109375 56 
z
" id="DejaVuSans-117"/>
       <path d="M 18.109375 8.203125 
L 18.109375 -20.796875 
L 9.078125 -20.796875 
L 9.078125 54.6875 
L 18.109375 54.6875 
L 18.109375 46.390625 
Q 20.953125 51.265625 25.265625 53.625 
Q 29.59375 56 35.59375 56 
Q 45.5625 56 51.78125 48.09375 
Q 58.015625 40.1875 58.015625 27.296875 
Q 58.015625 14.40625 51.78125 6.484375 
Q 45.5625 -1.421875 35.59375 -1.421875 
Q 29.59375 -1.421875 25.265625 0.953125 
Q 20.953125 3.328125 18.109375 8.203125 
z
M 48.6875 27.296875 
Q 48.6875 37.203125 44.609375 42.84375 
Q 40.53125 48.484375 33.40625 48.484375 
Q 26.265625 48.484375 22.1875 42.84375 
Q 18.109375 37.203125 18.109375 27.296875 
Q 18.109375 17.390625 22.1875 11.75 
Q 26.265625 6.109375 33.40625 6.109375 
Q 40.53125 6.109375 44.609375 11.75 
Q 48.6875 17.390625 48.6875 27.296875 
z
" id="DejaVuSans-112"/>
       <path d="M 45.40625 46.390625 
L 45.40625 75.984375 
L 54.390625 75.984375 
L 54.390625 0 
L 45.40625 0 
L 45.40625 8.203125 
Q 42.578125 3.328125 38.25 0.953125 
Q 33.9375 -1.421875 27.875 -1.421875 
Q 17.96875 -1.421875 11.734375 6.484375 
Q 5.515625 14.40625 5.515625 27.296875 
Q 5.515625 40.1875 11.734375 48.09375 
Q 17.96875 56 27.875 56 
Q 33.9375 56 38.25 53.625 
Q 42.578125 51.265625 45.40625 46.390625 
z
M 14.796875 27.296875 
Q 14.796875 17.390625 18.875 11.75 
Q 22.953125 6.109375 30.078125 6.109375 
Q 37.203125 6.109375 41.296875 11.75 
Q 45.40625 17.390625 45.40625 27.296875 
Q 45.40625 37.203125 41.296875 42.84375 
Q 37.203125 48.484375 30.078125 48.484375 
Q 22.953125 48.484375 18.875 42.84375 
Q 14.796875 37.203125 14.796875 27.296875 
z
" id="DejaVuSans-100"/>
       <path d="M 34.28125 27.484375 
Q 23.390625 27.484375 19.1875 25 
Q 14.984375 22.515625 14.984375 16.5 
Q 14.984375 11.71875 18.140625 8.90625 
Q 21.296875 6.109375 26.703125 6.109375 
Q 34.1875 6.109375 38.703125 11.40625 
Q 43.21875 16.703125 43.21875 25.484375 
L 43.21875 27.484375 
z
M 52.203125 31.203125 
L 52.203125 0 
L 43.21875 0 
L 43.21875 8.296875 
Q 40.140625 3.328125 35.546875 0.953125 
Q 30.953125 -1.421875 24.3125 -1.421875 
Q 15.921875 -1.421875 10.953125 3.296875 
Q 6 8.015625 6 15.921875 
Q 6 25.140625 12.171875 29.828125 
Q 18.359375 34.515625 30.609375 34.515625 
L 43.21875 34.515625 
L 43.21875 35.40625 
Q 43.21875 41.609375 39.140625 45 
Q 35.0625 48.390625 27.6875 48.390625 
Q 23 48.390625 18.546875 47.265625 
Q 14.109375 46.140625 10.015625 43.890625 
L 10.015625 52.203125 
Q 14.9375 54.109375 19.578125 55.046875 
Q 24.21875 56 28.609375 56 
Q 40.484375 56 46.34375 49.84375 
Q 52.203125 43.703125 52.203125 31.203125 
z
" id="DejaVuSans-97"/>
       <path d="M 18.3125 70.21875 
L 18.3125 54.6875 
L 36.8125 54.6875 
L 36.8125 47.703125 
L 18.3125 47.703125 
L 18.3125 18.015625 
Q 18.3125 11.328125 20.140625 9.421875 
Q 21.96875 7.515625 27.59375 7.515625 
L 36.8125 7.515625 
L 36.8125 0 
L 27.59375 0 
Q 17.1875 0 13.234375 3.875 
Q 9.28125 7.765625 9.28125 18.015625 
L 9.28125 47.703125 
L 2.6875 47.703125 
L 2.6875 54.6875 
L 9.28125 54.6875 
L 9.28125 70.21875 
z
" id="DejaVuSans-116"/>
       <path d="M 56.203125 29.59375 
L 56.203125 25.203125 
L 14.890625 25.203125 
Q 15.484375 15.921875 20.484375 11.0625 
Q 25.484375 6.203125 34.421875 6.203125 
Q 39.59375 6.203125 44.453125 7.46875 
Q 49.3125 8.734375 54.109375 11.28125 
L 54.109375 2.78125 
Q 49.265625 0.734375 44.1875 -0.34375 
Q 39.109375 -1.421875 33.890625 -1.421875 
Q 20.796875 -1.421875 13.15625 6.1875 
Q 5.515625 13.8125 5.515625 26.8125 
Q 5.515625 40.234375 12.765625 48.109375 
Q 20.015625 56 32.328125 56 
Q 43.359375 56 49.78125 48.890625 
Q 56.203125 41.796875 56.203125 29.59375 
z
M 47.21875 32.234375 
Q 47.125 39.59375 43.09375 43.984375 
Q 39.0625 48.390625 32.421875 48.390625 
Q 24.90625 48.390625 20.390625 44.140625 
Q 15.875 39.890625 15.1875 32.171875 
z
" id="DejaVuSans-101"/>
      </defs>
      <use xlink:href="#DejaVuSans-117"/>
      <use x="63.378906" xlink:href="#DejaVuSans-112"/>
      <use x="126.855469" xlink:href="#DejaVuSans-100"/>
      <use x="190.332031" xlink:href="#DejaVuSans-97"/>
      <use x="251.611328" xlink:href="#DejaVuSans-116"/>
      <use x="290.820312" xlink:href="#DejaVuSans-101"/>
     </g>
    </g>
   </g>
   <g id="matplotlib.axis_2">
    <g id="ytick_1">
     <g id="line2d_7">
      <defs>
       <path d="M 0 0 
L -3.5 0 
" id="m1e6c512713" style="stroke:#000000;stroke-width:0.8;"/>
      </defs>
      <g>
       <use style="stroke:#000000;stroke-width:0.8;" x="54" xlink:href="#m1e6c512713" y="252"/>
      </g>
     </g>
     <g id="text_8">
      <!-- 0.000 -->
      <g transform="translate(12.64625 256.559062)scale(0.12 -0.12)">
       <defs>
        <path d="M 10.6875 12.40625 
L 21 12.40625 
L 21 0 
L 10.6875 0 
z
" id="DejaVuSans-46"/>
       </defs>
       <use xlink:href="#DejaVuSans-48"/>
       <use x="63.623047" xlink:href="#DejaVuSans-46"/>
       <use x="95.410156" xlink:href="#DejaVuSans-48"/>
       <use x="159.033203" xlink:href="#DejaVuSans-48"/>
       <use x="222.65625" xlink:href="#DejaVuSans-48"/>
      </g>
     </g>
    </g>
    <g id="ytick_2">
     <g id="line2d_8">
      <g>
       <use style="stroke:#000000;stroke-width:0.8;" x="54" xlink:href="#m1e6c512713" y="179.785574"/>
      </g>
     </g>
     <g id="text_9">
      <!-- 0.005 -->
      <g transform="translate(12.64625 184.344637)scale(0.12 -0.12)">
       <use xlink:href="#DejaVuSans-48"/>
       <use x="63.623047" xlink:href="#DejaVuSans-46"/>
       <use x="95.410156" xlink:href="#DejaVuSans-48"/>
       <use x="159.033203" xlink:href="#DejaVuSans-48"/>
       <use x="222.65625" xlink:href="#DejaVuSans-53"/>
      </g>
     </g>
    </g>
    <g id="ytick_3">
     <g id="line2d_9">
      <g>
       <use style="stroke:#000000;stroke-width:0.8;" x="54" xlink:href="#m1e6c512713" y="107.571149"/>
      </g>
     </g>
     <g id="text_10">
      <!-- 0.010 -->
      <g transform="translate(12.64625 112.130211)scale(0.12 -0.12)">
       <use xlink:href="#DejaVuSans-48"/>
       <use x="63.623047" xlink:href="#DejaVuSans-46"/>
       <use x="95.410156" xlink:href="#DejaVuSans-48"/>
       <use x="159.033203" xlink:href="#DejaVuSans-49"/>
       <use x="222.65625" xlink:href="#DejaVuSans-48"/>
      </g>
     </g>
    </g>
    <g id="ytick_4">
     <g id="line2d_10">
      <g>
       <use style="stroke:#000000;stroke-width:0.8;" x="54" xlink:href="#m1e6c512713" y="35.356723"/>
      </g>
     </g>
     <g id="text_11">
      <!-- 0.015 -->
      <g transform="translate(12.64625 39.915786)scale(0.12 -0.12)">
       <use xlink:href="#DejaVuSans-48"/>
       <use x="63.623047" xlink:href="#DejaVuSans-46"/>
       <use x="95.410156" xlink:href="#DejaVuSans-48"/>
       <use x="159.033203" xlink:href="#DejaVuSans-49"/>
       <use x="222.65625" xlink:href="#DejaVuSans-53"/>
      </g>
     </g>
    </g>
    <g id="text_12">
     <!-- $P_{k,i=0}$ -->
     <g transform="translate(5.64625 160.68)rotate(-90)scale(0.12 -0.12)">
      <defs>
       <path d="M 16.890625 72.90625 
L 39.703125 72.90625 
Q 49.65625 72.90625 54.875 68.265625 
Q 60.109375 63.625 60.109375 54.6875 
Q 60.109375 42.671875 52.390625 35.984375 
Q 44.671875 29.296875 30.71875 29.296875 
L 18.3125 29.296875 
L 12.59375 0 
L 2.6875 0 
z
M 25.203125 64.796875 
L 19.921875 37.40625 
L 32.328125 37.40625 
Q 40.71875 37.40625 45.203125 41.703125 
Q 49.703125 46 49.703125 54 
Q 49.703125 59.125 46.65625 61.953125 
Q 43.609375 64.796875 38.09375 64.796875 
z
" id="DejaVuSans-Oblique-80"/>
       <path d="M 18.3125 75.984375 
L 27.296875 75.984375 
L 18.703125 31.6875 
L 49.515625 54.6875 
L 61.1875 54.6875 
L 26.8125 28.515625 
L 51.90625 0 
L 41.015625 0 
L 17.671875 26.703125 
L 12.5 0 
L 3.515625 0 
z
" id="DejaVuSans-Oblique-107"/>
       <path d="M 11.71875 12.40625 
L 22.015625 12.40625 
L 22.015625 4 
L 14.015625 -11.625 
L 7.71875 -11.625 
L 11.71875 4 
z
" id="DejaVuSans-44"/>
       <path d="M 18.3125 75.984375 
L 27.296875 75.984375 
L 25.09375 64.59375 
L 16.109375 64.59375 
z
M 14.203125 54.6875 
L 23.1875 54.6875 
L 12.5 0 
L 3.515625 0 
z
" id="DejaVuSans-Oblique-105"/>
       <path d="M 10.59375 45.40625 
L 73.1875 45.40625 
L 73.1875 37.203125 
L 10.59375 37.203125 
z
M 10.59375 25.484375 
L 73.1875 25.484375 
L 73.1875 17.1875 
L 10.59375 17.1875 
z
" id="DejaVuSans-61"/>
      </defs>
      <use transform="translate(0 0.09375)" xlink:href="#DejaVuSans-Oblique-80"/>
      <use transform="translate(60.302734 -16.3125)scale(0.7)" xlink:href="#DejaVuSans-Oblique-107"/>
      <use transform="translate(100.839844 -16.3125)scale(0.7)" xlink:href="#DejaVuSans-44"/>
      <use transform="translate(136.728516 -16.3125)scale(0.7)" xlink:href="#DejaVuSans-Oblique-105"/>
      <use transform="translate(169.814453 -16.3125)scale(0.7)" xlink:href="#DejaVuSans-61"/>
      <use transform="translate(242.104492 -16.3125)scale(0.7)" xlink:href="#DejaVuSans-48"/>
     </g>
    </g>
   </g>
   <g id="line2d_11">
    <path clip-path="url(#pdcc87a3c5e)" d="M 54 239.765345 
L 60.696 237.555467 
L 67.392 236.81468 
L 74.088 236.878267 
L 80.784 237.020172 
L 87.48 236.532223 
L 94.176 236.531005 
L 100.872 237.157565 
L 107.568 236.280434 
L 114.264 237.257887 
L 120.96 238.5087 
L 127.656 238.774946 
L 134.352 238.638371 
L 141.048 240.341272 
L 147.744 241.82124 
L 154.44 242.424774 
L 161.136 245.199323 
L 167.832 244.890593 
L 174.528 244.361344 
L 181.224 244.989792 
L 187.92 245.860053 
L 194.616 247.203582 
L 201.312 247.657758 
L 208.008 247.866249 
L 214.704 249.477157 
L 221.4 249.948196 
L 228.096 250.520694 
L 234.792 250.431299 
L 241.488 250.934891 
L 248.184 251.414782 
L 254.88 251.389272 
L 261.576 251.156322 
L 268.272 251.430128 
L 274.968 251.711262 
L 281.664 251.690548 
L 288.36 251.774295 
L 295.056 251.829717 
L 301.752 251.869474 
L 308.448 251.916287 
L 315.144 251.932534 
L 321.84 251.948559 
L 328.536 251.942996 
L 335.232 251.960391 
L 341.928 251.956033 
L 348.624 251.941948 
L 355.32 251.943873 
L 362.016 251.97419 
L 368.712 251.949506 
L 375.408 251.920172 
L 382.104 251.959405 
" style="fill:none;stroke:#ff0000;stroke-linecap:square;stroke-width:0.5;"/>
   </g>
   <g id="line2d_12">
    <path clip-path="url(#pdcc87a3c5e)" d="M 54 218.910271 
L 60.696 218.893247 
L 67.392 217.434527 
L 74.088 218.045421 
L 80.784 217.745381 
L 87.48 219.142344 
L 94.176 219.41732 
L 100.872 219.900647 
L 107.568 219.899452 
L 114.264 222.11009 
L 120.96 220.717009 
L 127.656 219.632699 
L 134.352 219.603964 
L 141.048 218.740958 
L 147.744 219.366215 
L 154.44 218.45251 
L 161.136 218.519937 
L 167.832 219.592773 
L 174.528 219.052939 
L 181.224 217.643322 
L 187.92 220.102132 
L 194.616 220.123154 
L 201.312 221.396391 
L 208.008 224.083843 
L 214.704 223.377081 
L 221.4 225.223135 
L 228.096 224.93952 
L 234.792 230.183178 
L 241.488 229.428921 
L 248.184 232.242183 
L 254.88 234.740596 
L 261.576 235.551301 
L 268.272 237.469244 
L 274.968 240.048152 
L 281.664 240.131431 
L 288.36 242.99395 
L 295.056 240.932339 
L 301.752 243.208148 
L 308.448 242.417686 
L 315.144 244.62833 
L 321.84 245.101489 
L 328.536 244.100818 
L 335.232 246.689155 
L 341.928 243.035439 
L 348.624 246.890676 
L 355.32 246.358478 
L 362.016 245.457838 
L 368.712 245.449849 
L 375.408 246.366769 
L 382.104 243.615234 
" style="fill:none;stroke:#ff0000;stroke-linecap:square;stroke-width:1.5;"/>
   </g>
   <g id="line2d_13">
    <path clip-path="url(#pdcc87a3c5e)" d="M 54 170.156867 
L 60.696 169.649806 
L 67.392 170.287765 
L 74.088 172.740589 
L 80.784 174.8545 
L 87.48 175.33994 
L 94.176 179.209862 
L 100.872 174.141824 
L 107.568 174.201248 
L 114.264 169.19472 
L 120.96 165.031428 
L 127.656 164.540583 
L 134.352 150.921353 
L 141.048 147.270285 
L 147.744 137.061813 
L 154.44 134.924339 
L 161.136 121.027311 
L 167.832 122.384329 
L 174.528 114.590393 
L 181.224 123.110037 
L 187.92 129.50124 
L 194.616 115.893072 
L 201.312 117.861945 
L 208.008 110.646425 
L 214.704 116.702134 
L 221.4 117.343658 
L 228.096 121.85434 
L 234.792 129.218128 
L 241.488 122.212793 
L 248.184 130.805279 
L 254.88 138.678971 
L 261.576 143.493616 
L 268.272 152.972056 
L 274.968 144.012565 
L 281.664 141.271201 
L 288.36 156.599386 
L 295.056 148.787153 
L 301.752 152.847299 
L 308.448 147.342173 
L 315.144 153.851057 
L 321.84 157.760569 
L 328.536 164.713336 
L 335.232 166.104231 
L 341.928 166.608146 
L 348.624 167.889093 
L 355.32 164.786936 
L 362.016 157.532252 
L 368.712 145.250179 
L 375.408 173.698335 
L 382.104 155.969573 
" style="fill:none;stroke:#ff0000;stroke-linecap:square;stroke-width:0.5;"/>
   </g>
   <g id="line2d_14">
    <path clip-path="url(#pdcc87a3c5e)" d="M 54 227.038318 
L 60.696 227.514457 
L 67.392 229.897138 
L 74.088 229.229876 
L 80.784 232.365621 
L 87.48 234.553504 
L 94.176 232.864472 
L 100.872 232.24704 
L 107.568 236.111531 
L 114.264 239.220244 
L 120.96 236.75442 
L 127.656 237.613088 
L 134.352 237.127259 
L 141.048 236.149576 
L 147.744 234.967495 
L 154.44 227.423276 
L 161.136 225.188699 
L 167.832 220.12191 
L 174.528 215.803153 
L 181.224 214.023043 
L 187.92 206.977239 
L 194.616 211.03653 
L 201.312 202.047953 
L 208.008 195.273655 
L 214.704 197.527696 
L 221.4 197.176292 
L 228.096 198.163756 
L 234.792 196.761489 
L 241.488 194.021149 
L 248.184 196.99125 
L 254.88 188.893205 
L 261.576 192.332289 
L 268.272 201.589841 
L 274.968 198.445881 
L 281.664 195.626948 
L 288.36 195.855485 
L 295.056 192.150836 
L 301.752 193.042728 
L 308.448 197.266257 
L 315.144 190.903055 
L 321.84 197.288969 
L 328.536 192.722384 
L 335.232 192.693501 
L 341.928 190.386882 
L 348.624 190.968794 
L 355.32 205.113903 
L 362.016 199.266046 
L 368.712 200.752338 
L 375.408 200.496942 
L 382.104 204.941949 
" style="fill:none;stroke:#0000ff;stroke-linecap:square;stroke-width:0.5;"/>
   </g>
   <g id="line2d_15">
    <path clip-path="url(#pdcc87a3c5e)" d="M 54 200.096938 
L 60.696 197.710954 
L 67.392 203.802408 
L 74.088 208.94129 
L 80.784 209.746376 
L 87.48 217.50034 
L 94.176 211.53699 
L 100.872 212.312639 
L 107.568 213.622603 
L 114.264 220.397941 
L 120.96 215.078719 
L 127.656 208.886543 
L 134.352 200.782599 
L 141.048 198.777867 
L 147.744 182.925344 
L 154.44 167.025638 
L 161.136 162.324936 
L 167.832 155.107403 
L 174.528 148.116909 
L 181.224 147.804659 
L 187.92 143.115243 
L 194.616 147.228833 
L 201.312 144.272204 
L 208.008 130.75498 
L 214.704 131.283057 
L 221.4 130.836781 
L 228.096 129.445587 
L 234.792 125.020839 
L 241.488 129.008385 
L 248.184 129.120593 
L 254.88 124.282464 
L 261.576 128.241194 
L 268.272 123.448262 
L 274.968 131.486049 
L 281.664 122.788997 
L 288.36 124.106466 
L 295.056 126.339906 
L 301.752 120.611066 
L 308.448 123.386484 
L 315.144 120.361906 
L 321.84 123.984726 
L 328.536 128.331259 
L 335.232 125.423089 
L 341.928 122.107897 
L 348.624 124.030169 
L 355.32 134.243435 
L 362.016 127.335938 
L 368.712 123.618021 
L 375.408 122.313298 
L 382.104 132.166365 
" style="fill:none;stroke:#0000ff;stroke-linecap:square;stroke-width:1.5;"/>
   </g>
   <g id="line2d_16">
    <path clip-path="url(#pdcc87a3c5e)" d="M 54 142.326114 
L 60.696 145.127289 
L 67.392 144.017102 
L 74.088 146.512717 
L 80.784 157.472435 
L 87.48 162.751777 
L 94.176 155.331752 
L 100.872 153.393509 
L 107.568 153.966415 
L 114.264 152.38263 
L 120.96 134.513284 
L 127.656 106.522898 
L 134.352 90.814736 
L 141.048 80.835584 
L 147.744 67.180791 
L 154.44 59.578292 
L 161.136 54.548298 
L 167.832 50.596113 
L 174.528 54.040968 
L 181.224 54.346161 
L 187.92 52.955169 
L 194.616 53.100243 
L 201.312 54.030052 
L 208.008 58.177369 
L 214.704 57.503719 
L 221.4 49.774923 
L 228.096 50.452537 
L 234.792 52.13038 
L 241.488 50.777224 
L 248.184 53.177125 
L 254.88 52.353532 
L 261.576 51.039897 
L 268.272 53.978232 
L 274.968 51.484495 
L 281.664 56.411008 
L 288.36 56.37614 
L 295.056 53.615505 
L 301.752 45.569403 
L 308.448 52.176703 
L 315.144 53.004838 
L 321.84 52.050706 
L 328.536 54.557836 
L 335.232 51.575701 
L 341.928 53.339835 
L 348.624 47.026614 
L 355.32 50.439382 
L 362.016 44.913057 
L 368.712 55.177004 
L 375.408 48.321283 
L 382.104 48.598107 
" style="fill:none;stroke:#0000ff;stroke-linecap:square;stroke-width:0.5;"/>
   </g>
   <g id="line2d_17">
    <path clip-path="url(#pdcc87a3c5e)" d="M 54 206.308173 
L 60.696 208.677443 
L 67.392 207.425305 
L 74.088 215.440361 
L 80.784 214.593868 
L 87.48 219.138386 
L 94.176 220.985546 
L 100.872 220.417115 
L 107.568 226.288951 
L 114.264 229.857583 
L 120.96 234.953288 
L 127.656 238.286899 
L 134.352 241.541606 
L 141.048 241.005178 
L 147.744 242.168042 
L 154.44 238.391998 
L 161.136 240.129172 
L 167.832 238.045965 
L 174.528 236.55006 
L 181.224 235.634105 
L 187.92 232.190289 
L 194.616 223.629353 
L 201.312 220.138466 
L 208.008 214.395179 
L 214.704 203.659039 
L 221.4 194.158497 
L 228.096 193.65275 
L 234.792 190.613441 
L 241.488 184.289852 
L 248.184 180.779701 
L 254.88 178.933192 
L 261.576 177.874946 
L 268.272 170.861063 
L 274.968 167.146921 
L 281.664 166.116445 
L 288.36 162.954341 
L 295.056 163.14041 
L 301.752 156.086486 
L 308.448 159.36693 
L 315.144 155.575619 
L 321.84 156.266906 
L 328.536 151.679668 
L 335.232 152.224355 
L 341.928 149.526889 
L 348.624 148.499133 
L 355.32 147.658329 
L 362.016 148.641918 
L 368.712 145.474945 
L 375.408 145.611731 
L 382.104 143.733675 
" style="fill:none;stroke:#008000;stroke-linecap:square;stroke-width:0.5;"/>
   </g>
   <g id="line2d_18">
    <path clip-path="url(#pdcc87a3c5e)" d="M 54 169.612553 
L 60.696 170.972458 
L 67.392 169.831843 
L 74.088 183.425161 
L 80.784 184.155157 
L 87.48 194.587517 
L 94.176 192.98225 
L 100.872 193.157577 
L 107.568 206.345303 
L 114.264 206.329563 
L 120.96 214.829953 
L 127.656 219.846283 
L 134.352 227.595401 
L 141.048 217.847301 
L 147.744 215.583533 
L 154.44 210.463691 
L 161.136 207.380031 
L 167.832 208.910071 
L 174.528 194.22558 
L 181.224 185.443393 
L 187.92 176.423554 
L 194.616 167.848207 
L 201.312 157.804635 
L 208.008 144.863627 
L 214.704 137.950271 
L 221.4 133.720977 
L 228.096 130.732381 
L 234.792 124.896321 
L 241.488 121.453979 
L 248.184 123.383847 
L 254.88 121.377074 
L 261.576 118.308043 
L 268.272 112.766285 
L 274.968 115.011067 
L 281.664 111.665691 
L 288.36 110.031723 
L 295.056 110.256062 
L 301.752 111.411928 
L 308.448 108.983865 
L 315.144 107.821507 
L 321.84 108.614525 
L 328.536 107.384817 
L 335.232 108.497083 
L 341.928 107.053878 
L 348.624 107.61834 
L 355.32 108.699082 
L 362.016 105.669915 
L 368.712 107.119142 
L 375.408 105.474289 
L 382.104 106.495597 
" style="fill:none;stroke:#008000;stroke-linecap:square;stroke-width:1.5;"/>
   </g>
   <g id="line2d_19">
    <path clip-path="url(#pdcc87a3c5e)" d="M 54 117.159024 
L 60.696 106.955929 
L 67.392 104.84762 
L 74.088 124.421049 
L 80.784 127.568865 
L 87.48 144.824584 
L 94.176 134.856365 
L 100.872 138.923484 
L 107.568 143.023325 
L 114.264 147.025086 
L 120.96 161.955022 
L 127.656 155.376063 
L 134.352 158.93493 
L 141.048 151.789061 
L 147.744 143.384678 
L 154.44 135.5813 
L 161.136 122.728902 
L 167.832 98.843167 
L 174.528 91.674102 
L 181.224 74.665158 
L 187.92 66.81328 
L 194.616 56.776794 
L 201.312 55.164124 
L 208.008 52.923132 
L 214.704 52.076427 
L 221.4 57.107565 
L 228.096 55.899214 
L 234.792 52.896944 
L 241.488 57.234265 
L 248.184 54.540297 
L 254.88 55.486227 
L 261.576 57.819506 
L 268.272 58.452498 
L 274.968 60.035675 
L 281.664 57.391206 
L 288.36 62.877909 
L 295.056 60.396615 
L 301.752 63.782392 
L 308.448 65.632207 
L 315.144 63.958876 
L 321.84 62.456636 
L 328.536 66.480025 
L 335.232 64.937903 
L 341.928 67.447636 
L 348.624 63.161003 
L 355.32 67.944718 
L 362.016 67.225005 
L 368.712 69.519062 
L 375.408 67.66403 
L 382.104 69.585015 
" style="fill:none;stroke:#008000;stroke-linecap:square;stroke-width:0.5;"/>
   </g>
   <g id="patch_3">
    <path d="M 54 252 
L 54 34.56 
" style="fill:none;stroke:#000000;stroke-linecap:square;stroke-linejoin:miter;stroke-width:0.8;"/>
   </g>
   <g id="patch_4">
    <path d="M 388.8 252 
L 388.8 34.56 
" style="fill:none;stroke:#000000;stroke-linecap:square;stroke-linejoin:miter;stroke-width:0.8;"/>
   </g>
   <g id="patch_5">
    <path d="M 54 252 
L 388.8 252 
" style="fill:none;stroke:#000000;stroke-linecap:square;stroke-linejoin:miter;stroke-width:0.8;"/>
   </g>
   <g id="patch_6">
    <path d="M 54 34.56 
L 388.8 34.56 
" style="fill:none;stroke:#000000;stroke-linecap:square;stroke-linejoin:miter;stroke-width:0.8;"/>
   </g>
   <g id="legend_1">
    <g id="patch_7">
     <path d="M 62.4 97.00125 
L 139.56 97.00125 
Q 141.96 97.00125 141.96 94.60125 
L 141.96 42.96 
Q 141.96 40.56 139.56 40.56 
L 62.4 40.56 
Q 60 40.56 60 42.96 
L 60 94.60125 
Q 60 97.00125 62.4 97.00125 
z
" style="fill:#ffffff;opacity:0.8;stroke:#cccccc;stroke-linejoin:miter;"/>
    </g>
    <g id="line2d_20">
     <path d="M 64.8 50.278125 
L 88.8 50.278125 
" style="fill:none;stroke:#ff0000;stroke-linecap:square;stroke-width:1.5;"/>
    </g>
    <g id="line2d_21"/>
    <g id="text_13">
     <!-- α:0.8 -->
     <g transform="translate(98.4 54.478125)scale(0.12 -0.12)">
      <defs>
       <path d="M 41.3125 25.4375 
L 39.15625 36.71875 
Q 36.96875 48.296875 28.265625 48.296875 
Q 21.734375 48.296875 18.75 42.921875 
Q 14.984375 36.1875 14.984375 27.296875 
Q 14.984375 16.546875 18.65625 11.421875 
Q 22.359375 6.203125 28.265625 6.203125 
Q 34.8125 6.203125 38.328125 16.609375 
z
M 46.34375 40.375 
L 51.171875 54.6875 
L 59.1875 54.6875 
L 49.171875 25.046875 
L 51.125 14.359375 
Q 51.5625 11.96875 53.265625 9.96875 
Q 55.28125 7.625 56.84375 7.625 
L 61.140625 7.625 
L 61.140625 0 
L 55.765625 0 
Q 51.171875 0 47.078125 4.109375 
Q 45.0625 6.15625 44.234375 10.453125 
Q 42 5.03125 37.40625 0.78125 
Q 35.25 -1.21875 28.265625 -1.21875 
Q 16.796875 -1.21875 11.234375 6.203125 
Q 5.515625 13.875 5.515625 27.296875 
Q 5.515625 41.65625 11.71875 48.390625 
Q 18.609375 55.90625 28.265625 55.90625 
Q 43.453125 55.90625 46.34375 40.375 
z
" id="DejaVuSans-945"/>
       <path d="M 11.71875 12.40625 
L 22.015625 12.40625 
L 22.015625 0 
L 11.71875 0 
z
M 11.71875 51.703125 
L 22.015625 51.703125 
L 22.015625 39.3125 
L 11.71875 39.3125 
z
" id="DejaVuSans-58"/>
       <path d="M 31.78125 34.625 
Q 24.75 34.625 20.71875 30.859375 
Q 16.703125 27.09375 16.703125 20.515625 
Q 16.703125 13.921875 20.71875 10.15625 
Q 24.75 6.390625 31.78125 6.390625 
Q 38.8125 6.390625 42.859375 10.171875 
Q 46.921875 13.96875 46.921875 20.515625 
Q 46.921875 27.09375 42.890625 30.859375 
Q 38.875 34.625 31.78125 34.625 
z
M 21.921875 38.8125 
Q 15.578125 40.375 12.03125 44.71875 
Q 8.5 49.078125 8.5 55.328125 
Q 8.5 64.0625 14.71875 69.140625 
Q 20.953125 74.21875 31.78125 74.21875 
Q 42.671875 74.21875 48.875 69.140625 
Q 55.078125 64.0625 55.078125 55.328125 
Q 55.078125 49.078125 51.53125 44.71875 
Q 48 40.375 41.703125 38.8125 
Q 48.828125 37.15625 52.796875 32.3125 
Q 56.78125 27.484375 56.78125 20.515625 
Q 56.78125 9.90625 50.3125 4.234375 
Q 43.84375 -1.421875 31.78125 -1.421875 
Q 19.734375 -1.421875 13.25 4.234375 
Q 6.78125 9.90625 6.78125 20.515625 
Q 6.78125 27.484375 10.78125 32.3125 
Q 14.796875 37.15625 21.921875 38.8125 
z
M 18.3125 54.390625 
Q 18.3125 48.734375 21.84375 45.5625 
Q 25.390625 42.390625 31.78125 42.390625 
Q 38.140625 42.390625 41.71875 45.5625 
Q 45.3125 48.734375 45.3125 54.390625 
Q 45.3125 60.0625 41.71875 63.234375 
Q 38.140625 66.40625 31.78125 66.40625 
Q 25.390625 66.40625 21.84375 63.234375 
Q 18.3125 60.0625 18.3125 54.390625 
z
" id="DejaVuSans-56"/>
      </defs>
      <use xlink:href="#DejaVuSans-945"/>
      <use x="65.917969" xlink:href="#DejaVuSans-58"/>
      <use x="99.609375" xlink:href="#DejaVuSans-48"/>
      <use x="163.232422" xlink:href="#DejaVuSans-46"/>
      <use x="195.019531" xlink:href="#DejaVuSans-56"/>
     </g>
    </g>
    <g id="line2d_22">
     <path d="M 64.8 67.891875 
L 88.8 67.891875 
" style="fill:none;stroke:#0000ff;stroke-linecap:square;stroke-width:1.5;"/>
    </g>
    <g id="line2d_23"/>
    <g id="text_14">
     <!-- h:8 -->
     <g transform="translate(98.4 72.091875)scale(0.12 -0.12)">
      <defs>
       <path d="M 54.890625 33.015625 
L 54.890625 0 
L 45.90625 0 
L 45.90625 32.71875 
Q 45.90625 40.484375 42.875 44.328125 
Q 39.84375 48.1875 33.796875 48.1875 
Q 26.515625 48.1875 22.3125 43.546875 
Q 18.109375 38.921875 18.109375 30.90625 
L 18.109375 0 
L 9.078125 0 
L 9.078125 75.984375 
L 18.109375 75.984375 
L 18.109375 46.1875 
Q 21.34375 51.125 25.703125 53.5625 
Q 30.078125 56 35.796875 56 
Q 45.21875 56 50.046875 50.171875 
Q 54.890625 44.34375 54.890625 33.015625 
z
" id="DejaVuSans-104"/>
      </defs>
      <use xlink:href="#DejaVuSans-104"/>
      <use x="63.378906" xlink:href="#DejaVuSans-58"/>
      <use x="97.070312" xlink:href="#DejaVuSans-56"/>
     </g>
    </g>
    <g id="line2d_24">
     <path d="M 64.8 85.505625 
L 88.8 85.505625 
" style="fill:none;stroke:#008000;stroke-linecap:square;stroke-width:1.5;"/>
    </g>
    <g id="line2d_25"/>
    <g id="text_15">
     <!-- $\lambda:100$ -->
     <g transform="translate(98.4 89.705625)scale(0.12 -0.12)">
      <defs>
       <path d="M 36.71875 67.4375 
L 48.828125 0 
L 39.3125 0 
L 31.84375 40.4375 
L 5.125 0 
L -4.390625 0 
L 29.734375 52.4375 
L 28.03125 62.109375 
Q 26.953125 68.265625 21.734375 68.265625 
L 17.046875 68.265625 
L 18.5 75.984375 
L 24.21875 75.875 
Q 35.203125 75.734375 36.71875 67.4375 
z
" id="DejaVuSans-Oblique-955"/>
      </defs>
      <use transform="translate(0 0.015625)" xlink:href="#DejaVuSans-Oblique-955"/>
      <use transform="translate(78.662109 0.015625)" xlink:href="#DejaVuSans-58"/>
      <use transform="translate(131.835938 0.015625)" xlink:href="#DejaVuSans-49"/>
      <use transform="translate(195.458984 0.015625)" xlink:href="#DejaVuSans-48"/>
      <use transform="translate(259.082031 0.015625)" xlink:href="#DejaVuSans-48"/>
     </g>
    </g>
   </g>
  </g>
 </g>
 <defs>
  <clipPath id="pdcc87a3c5e">
   <rect height="217.44" width="334.8" x="54" y="34.56"/>
  </clipPath>
 </defs>
</svg>
